<svg id="Layer_1" data-name="Layer 1" xmlns="http://www.w3.org/2000/svg" xmlns:xlink="http://www.w3.org/1999/xlink" viewBox="0 0 171.84 196.72"><defs><style>.cls-1{fill:#fff;}.cls-2{fill:url(#linear-gradient);}.cls-3{fill:url(#linear-gradient-2);}.cls-4{fill:url(#linear-gradient-3);}</style><linearGradient id="linear-gradient" x1="204.09" y1="98.82" x2="241.93" y2="98.82" gradientUnits="userSpaceOnUse"><stop offset="0" stop-color="#2e3192"/><stop offset="1" stop-color="#1b1464"/></linearGradient><linearGradient id="linear-gradient-2" x1="140.85" y1="113.39" x2="312.69" y2="113.39" xlink:href="#linear-gradient"/><linearGradient id="linear-gradient-3" x1="212.12" y1="117.49" x2="249.46" y2="117.49" xlink:href="#linear-gradient"/></defs><title>Logo</title><rect class="cls-1" x="42.82" y="31.97" width="85.67" height="123.67"/><path class="cls-2" d="M226.86,63.24c-13.73,0-22.61,17.58-22.77,44.37,0,10.55,1.34,19.59,4.18,26.79l33.66-62.62C238.58,66.42,233.56,63.24,226.86,63.24Z" transform="translate(-140.85 -15.03)"/><path class="cls-3" d="M309.94,62.19,229.53,15.76a5.53,5.53,0,0,0-5.51,0L143.61,62.19A5.49,5.49,0,0,0,140.85,67v92.85a5.49,5.49,0,0,0,2.76,4.77L224,211a5.53,5.53,0,0,0,5.51,0l80.41-46.43a5.51,5.51,0,0,0,2.75-4.77V67A5.51,5.51,0,0,0,309.94,62.19ZM225.85,164.37c-21.26,0-35.66-19.93-36-55.93,0-36.5,15.73-56.59,37.84-56.59,22.93,0,36,20.43,36,55.09C263.69,143.94,250,164.37,225.85,164.37Z" transform="translate(-140.85 -15.03)"/><path class="cls-4" d="M212.12,144.78c3.69,5.36,8.54,8.2,14.4,8.2,15.24,0,22.94-17.58,22.94-45.37,0-9.71-1.17-18.42-3.51-25.62Z" transform="translate(-140.85 -15.03)"/></svg>